<svg xmlns="http://www.w3.org/2000/svg" width="198" height="31" viewBox="0 0 198 31"><g transform="translate(-859 -559)"><g transform="translate(859 559)"><path d="M32.143,31c2.85,0,3.9-1.217,3.9-4.195V21a5.563,5.563,0,0,1,2.667-5.1.6.6,0,0,0,0-1.036,5.938,5.938,0,0,1-2.667-5.024v-5.7C36.039.932,35.149,0,32.3,0H6.7C3.85,0,2.961.932,2.961,4.144v5.7A5.938,5.938,0,0,1,.294,14.864a.6.6,0,0,0,0,1.036A5.5,5.5,0,0,1,2.961,21v5.8c0,2.979,1.046,4.2,3.9,4.2H32.143ZM19.435,25.69A10.477,10.477,0,0,1,12.087,23a1.425,1.425,0,0,1-.47-1.087A1.328,1.328,0,0,1,11.93,21l.628-.8a1.311,1.311,0,0,1,1.046-.57,2.438,2.438,0,0,1,1.307.466,8.725,8.725,0,0,0,4.864,1.424c1.438,0,2.588-.595,2.588-1.813,0-3.16-10.616-1.424-10.616-8.52,0-3.807,3.138-5.93,7.217-5.93A12.025,12.025,0,0,1,25.527,7.07a1.591,1.591,0,0,1,.654,1.3,1.439,1.439,0,0,1-.262.855l-.47.7a1.469,1.469,0,0,1-1.23.7,2.715,2.715,0,0,1-1.1-.312,8.315,8.315,0,0,0-3.9-.906c-1.542,0-2.457.829-2.457,1.683,0,3.238,10.616,1.477,10.616,8.365,0,3.86-3.138,6.242-7.95,6.242Z"/><path d="M36.039,26.805V21a5.563,5.563,0,0,1,2.667-5.1.6.6,0,0,0,0-1.036,5.938,5.938,0,0,1-2.667-5.024v-5.7C36.039.932,35.149,0,32.3,0H6.7C3.85,0,2.961.932,2.961,4.144v5.7A5.938,5.938,0,0,1,.294,14.864a.6.6,0,0,0,0,1.036A5.5,5.5,0,0,1,2.961,21v5.8c0,2.979,1.046,4.2,3.9,4.2C6.857,31,36.039,29.783,36.039,26.805Z"/><g transform="translate(-92.112 -74.274)"><g transform="translate(101.339 78.904)"><path d="M4.013-29.965a9.372,9.372,0,0,1,3.343-3.976,9.586,9.586,0,0,1,5.472-1.486,8.858,8.858,0,0,1,4.9,1.3,8.34,8.34,0,0,1,3.085,3.554,11.776,11.776,0,0,1,1.054,5.06q0,.763-.059,1.506t-.14,1.185H8.451a4.385,4.385,0,0,0,1.672,3.494,6.683,6.683,0,0,0,3.98,1.081,15.357,15.357,0,0,0,5.452-1,9.372,9.372,0,0,1,.756,1.928,9.949,9.949,0,0,1,.36,2.41,19.235,19.235,0,0,1-7,1.2,12.278,12.278,0,0,1-6.208-1.385A8.247,8.247,0,0,1,3.976-18.9a13.308,13.308,0,0,1-1.1-5.52A13.215,13.215,0,0,1,4.013-29.965Zm11.462.06a3.334,3.334,0,0,0-2.726-1.185,3.907,3.907,0,0,0-3.024,1.125,5.308,5.308,0,0,0-1.234,3.172h8.039a5.086,5.086,0,0,0-1.055-3.114Z" transform="translate(-2.878 35.433)" fill="#fff"/></g></g></g><text transform="translate(907 582)" fill="#1a282f" font-size="20" font-family="HelveticaNeue-Bold, Helvetica Neue" font-weight="700" letter-spacing="-0.025em"><tspan x="0" y="0">Dökümantasyon</tspan></text></g></svg>
